<?xml version="1.0" encoding="UTF-8" standalone="no"?>
<!DOCTYPE svg PUBLIC "-//W3C//DTD SVG 1.1//EN" "http://www.w3.org/Graphics/SVG/1.1/DTD/svg11.dtd">
<svg width="100%" height="100%" viewBox="0 0 2213 2213" version="1.1" xmlns="http://www.w3.org/2000/svg" xmlns:xlink="http://www.w3.org/1999/xlink" xml:space="preserve" xmlns:serif="http://www.serif.com/" style="fill-rule:evenodd;clip-rule:evenodd;stroke-linejoin:round;stroke-miterlimit:2;">
    <g transform="matrix(1,0,0,1,-202.823,-88.0431)">
        <path d="M345.884,1337.27L488.834,1194.32L488.723,1194.21L1308.99,373.943L2129.26,1194.21L1308.99,2014.48L980.18,1685.67L837.23,1828.62L1308.99,2300.38L2415.16,1194.21L1308.99,88.043L202.823,1194.21L345.884,1337.27ZM805.715,1511.2L662.765,1654.15L520.349,1511.74L663.299,1368.79L805.715,1511.2Z" style="fill:rgb(254,176,12);"/>
        <g transform="matrix(4.07507,-0.326432,0.326432,4.07507,-3144.64,-5619.1)">
            <path d="M948.548,1662.4C948.548,1662.4 960.197,1607.06 981.915,1590.05C1013.87,1565.03 1028.89,1569.45 1045.52,1542.45C1060.87,1517.52 1059.06,1490.31 1059.06,1490.31C1059.06,1490.31 1095.23,1581.39 1085.58,1628.95C1075.64,1677.92 1048.92,1704.68 1027.62,1715.71C1006.32,1726.75 982.9,1736.34 997.643,1714.53C1012.39,1692.72 1022.98,1674.07 1030.13,1655.63C1038.4,1634.28 1039.82,1610.6 1039.82,1610.6C1039.82,1610.6 1024.22,1664.19 1010.37,1684.92C996.523,1705.66 974.063,1734.04 946.805,1724.27C919.546,1714.5 917.37,1713.4 905.557,1705.4C893.745,1697.41 868.927,1675.42 868.927,1675.42C868.927,1675.42 885.294,1700.17 906.206,1711.59C932.522,1725.96 991.503,1739.48 930.924,1746.97C869.371,1754.58 828.416,1696.68 816.561,1665.63C804.507,1634.06 797.698,1605.88 797.698,1605.88C797.698,1605.88 825.265,1645.18 862.405,1641.08C899.545,1636.97 896.677,1634.49 913.946,1641.07C931.215,1647.64 948.548,1662.4 948.548,1662.4Z" style="fill:rgb(30,136,21);"/>
        </g>
        <g>
            <g transform="matrix(0.993255,0.993255,-0.597878,0.597878,1207.89,-543.18)">
                <rect x="1338.52" y="1248.1" width="143.761" height="805.518" style="fill:rgb(136,83,28);"/>
            </g>
            <g transform="matrix(1.40467,2.3614e-16,-7.55309e-17,1.02585,-570.488,-92.8066)">
                <rect x="1338.52" y="1248.1" width="143.761" height="805.518" style="fill:rgb(136,83,28);"/>
            </g>
        </g>
    </g>
</svg>
